<svg width="266" height="266" viewBox="0 0 266 266" fill="none" xmlns="http://www.w3.org/2000/svg">
<rect width="266" height="266" rx="133" fill="#EA985D"/>
<path d="M60.3804 89.9338C84.5851 78.4787 108.798 67.0343 133.001 55.5729C157.199 67.0386 181.41 78.4787 205.615 89.9359C205.6 91.8077 205.657 93.6837 205.581 95.5554C157.191 95.5384 108.8 95.5384 60.4102 95.5532C60.3424 93.6815 60.3932 91.8077 60.3804 89.9338Z" fill="black" stroke="black" stroke-width="0.204"/>
<path d="M74.3843 98.1182C113.463 98.1054 152.539 98.1054 191.615 98.1182C191.579 101.175 191.602 104.231 191.602 107.288C167.978 107.337 144.351 107.294 120.726 107.309C105.283 107.295 89.8378 107.337 74.3948 107.286C74.3992 104.231 74.4181 101.175 74.3843 98.1182Z" fill="black" stroke="black" stroke-width="0.204"/>
<path d="M79.7324 109.883C84.1513 109.876 88.5702 109.876 92.9912 109.883C93.6685 133.689 94.3669 157.496 95.0187 181.303C89.3278 181.299 83.637 181.303 77.9482 181.301C78.5599 157.494 79.1483 133.689 79.7324 109.883Z" fill="black" stroke="black" stroke-width="0.204"/>
<path d="M172.752 109.876C177.173 109.887 181.596 109.866 186.019 109.887C186.671 133.692 187.361 157.496 188.051 181.301C182.36 181.307 176.671 181.301 170.983 181.305C171.548 157.494 172.17 133.685 172.752 109.876Z" fill="black" stroke="black" stroke-width="0.204"/>
<path d="M67.2417 183.87C111.082 183.859 154.92 183.859 198.76 183.87C198.732 186.925 198.756 189.981 198.747 193.036C201.374 193.046 204 193.046 206.626 193.036C206.616 196.099 206.616 199.164 206.626 202.227C209.174 202.227 211.722 202.223 214.271 202.229C214.277 205.294 214.277 208.357 214.271 211.422C160.09 211.431 105.912 211.429 51.731 211.424C51.7246 208.359 51.7204 205.294 51.7331 202.229C54.2811 202.225 56.8293 202.225 59.3773 202.229C59.3837 199.164 59.3837 196.099 59.3752 193.036C62.0016 193.048 64.628 193.046 67.2543 193.038C67.2458 189.981 67.2692 186.925 67.2417 183.87Z" fill="black" stroke="black" stroke-width="0.204"/>
<path d="M141.849 109.883L155.102 109.879L157.135 181.302H140.061L141.849 109.883Z" fill="black"/>
<path d="M110.741 109.877L124.013 109.89L126.048 181.304L108.953 181.274L110.741 109.877Z" fill="black"/>
</svg>
