<svg width="266" height="266" viewBox="0 0 266 266" fill="none" xmlns="http://www.w3.org/2000/svg">
<rect width="266" height="266" rx="133" fill="#EA985D"/>
<path d="M53 91.42C53.4667 91.14 54.1667 91 55.1 91H72.04C72.5067 91 72.88 91.1867 73.16 91.56C73.5333 91.84 73.72 92.2133 73.72 92.68V187.32C73.72 187.787 73.5333 188.207 73.16 188.58C72.88 188.86 72.5067 189 72.04 189H55.66C55.1933 189 54.7733 188.86 54.4 188.58C54.12 188.207 53.98 187.787 53.98 187.32V110.6C53.98 110.413 53.8867 110.227 53.7 110.04C53.5133 109.853 53.3267 109.807 53.14 109.9L39.28 113.68L38.72 113.82C37.88 113.82 37.46 113.307 37.46 112.28L37.04 100.24C37.04 99.3067 37.46 98.6533 38.3 98.28L53 91.42ZM114.112 171.22C113.926 171.407 113.879 171.593 113.972 171.78C114.066 171.967 114.252 172.06 114.532 172.06H152.472C152.939 172.06 153.312 172.247 153.592 172.62C153.966 172.9 154.152 173.273 154.152 173.74V187.32C154.152 187.787 153.966 188.207 153.592 188.58C153.312 188.86 152.939 189 152.472 189H89.4722C89.0055 189 88.5855 188.86 88.2122 188.58C87.9322 188.207 87.7922 187.787 87.7922 187.32V174.44C87.7922 173.6 88.0722 172.9 88.6322 172.34C93.2055 167.86 97.8722 163.007 102.632 157.78C107.392 152.46 110.379 149.147 111.592 147.84C114.206 144.76 116.866 141.82 119.572 139.02C128.066 129.593 132.312 122.593 132.312 118.02C132.312 114.753 131.146 112.093 128.812 110.04C126.479 107.893 123.446 106.82 119.712 106.82C115.979 106.82 112.946 107.893 110.612 110.04C108.279 112.093 107.112 114.847 107.112 118.3V121.8C107.112 122.267 106.926 122.687 106.552 123.06C106.272 123.34 105.899 123.48 105.432 123.48H88.9122C88.4455 123.48 88.0255 123.34 87.6522 123.06C87.3722 122.687 87.2322 122.267 87.2322 121.8V115.22C87.5122 110.18 89.0989 105.747 91.9922 101.92C94.8855 98 98.7122 95.0133 103.472 92.96C108.326 90.9067 113.739 89.88 119.712 89.88C126.339 89.88 132.079 91.14 136.932 93.66C141.879 96.0867 145.659 99.4 148.272 103.6C150.979 107.8 152.332 112.467 152.332 117.6C152.332 121.52 151.352 125.533 149.392 129.64C147.432 133.747 144.492 138.18 140.572 142.94C137.679 146.58 134.552 150.173 131.192 153.72C127.832 157.267 122.839 162.4 116.212 169.12L114.112 171.22ZM224.698 142.24C226.565 146.533 227.498 151.48 227.498 157.08C227.498 162.12 226.658 166.787 224.978 171.08C222.738 177.053 218.958 181.72 213.638 185.08C208.411 188.44 202.205 190.12 195.018 190.12C187.925 190.12 181.671 188.347 176.258 184.8C170.938 181.253 167.111 176.447 164.778 170.38C163.471 166.74 162.725 162.82 162.538 158.62C162.538 157.5 163.098 156.94 164.218 156.94H180.738C181.858 156.94 182.418 157.5 182.418 158.62C182.791 161.7 183.305 163.987 183.958 165.48C184.798 167.907 186.151 169.82 188.018 171.22C189.978 172.527 192.265 173.18 194.878 173.18C200.105 173.18 203.698 170.893 205.658 166.32C206.965 163.52 207.618 160.253 207.618 156.52C207.618 152.133 206.918 148.54 205.518 145.74C203.371 141.353 199.778 139.16 194.738 139.16C193.711 139.16 192.638 139.487 191.518 140.14C190.398 140.7 189.045 141.54 187.458 142.66C187.085 142.94 186.711 143.08 186.338 143.08C185.778 143.08 185.358 142.8 185.078 142.24L176.818 130.62C176.631 130.34 176.538 130.013 176.538 129.64C176.538 129.08 176.725 128.613 177.098 128.24L199.358 108.78C199.545 108.593 199.591 108.407 199.498 108.22C199.498 108.033 199.358 107.94 199.078 107.94H166.178C165.711 107.94 165.291 107.8 164.918 107.52C164.638 107.147 164.498 106.727 164.498 106.26V92.68C164.498 92.2133 164.638 91.84 164.918 91.56C165.291 91.1867 165.711 91 166.178 91H224.558C225.025 91 225.398 91.1867 225.678 91.56C226.051 91.84 226.238 92.2133 226.238 92.68V108.08C226.238 108.827 225.911 109.527 225.258 110.18L206.918 126.98C206.731 127.167 206.638 127.353 206.638 127.54C206.731 127.727 206.965 127.82 207.338 127.82C215.458 129.407 221.245 134.213 224.698 142.24Z" fill="black"/>
</svg>
