<svg width="266" height="266" viewBox="0 0 266 266" fill="none" xmlns="http://www.w3.org/2000/svg">
<rect width="266" height="266" rx="133" fill="#EA985D"/>
<g clip-path="url(#clip0_69_50)">
<path d="M104.875 195H75.0312C74.7708 195 74.6406 194.87 74.6406 194.609V185.547C74.6406 185.443 74.6927 185.339 74.7969 185.234L94.5625 158.125C94.9271 157.63 95.2266 157.005 95.4609 156.25C95.7214 155.469 95.8516 154.792 95.8516 154.219C95.8516 152.656 95.2917 151.224 94.1719 149.922C93.0521 148.62 91.6328 147.969 89.9141 147.969C88.2734 147.969 86.8802 148.594 85.7344 149.844C84.5885 151.094 84.0156 152.682 84.0156 154.609V158.516C84.0156 158.776 83.8854 158.906 83.625 158.906H74.6406C74.4323 158.906 74.3281 158.776 74.3281 158.516V154.609C74.3281 151.615 75.0703 148.893 76.5547 146.445C78.013 143.997 79.9271 142.057 82.2969 140.625C84.6667 139.167 87.2057 138.438 89.9141 138.438C92.7786 138.438 95.3958 139.167 97.7656 140.625C100.109 142.109 101.984 144.049 103.391 146.445C104.823 148.841 105.539 151.432 105.539 154.219C105.539 155.964 105.227 157.747 104.602 159.57C104.003 161.367 103.169 162.969 102.102 164.375L86.9062 185.234H104.875C105.109 185.234 105.227 185.339 105.227 185.547V194.609C105.227 194.87 105.109 195 104.875 195ZM125.656 195.781C122.818 195.781 120.214 195.065 117.844 193.633C115.448 192.201 113.521 190.299 112.062 187.93C110.63 185.56 109.914 182.982 109.914 180.195V177.812C109.914 177.578 110.044 177.461 110.305 177.461H119.367C119.576 177.461 119.68 177.578 119.68 177.812V179.648C119.68 181.445 120.266 182.969 121.438 184.219C122.609 185.443 124.016 186.055 125.656 186.055C127.323 186.055 128.729 185.43 129.875 184.18C131.021 182.904 131.594 181.393 131.594 179.648V174.219C131.594 172.552 130.995 171.159 129.797 170.039C128.599 168.919 127.115 168.359 125.344 168.359C123.052 168.359 121.164 169.271 119.68 171.094L119.523 171.328L110.969 170.664C110.682 170.664 110.539 170.534 110.539 170.273L111.516 148.359L111.984 139.648C111.984 139.44 112.089 139.336 112.297 139.336H139.211C139.419 139.336 139.523 139.44 139.523 139.648V148.359C139.523 148.62 139.419 148.75 139.211 148.75H120.461L120.07 159.805C120.721 159.492 121.568 159.232 122.609 159.023C123.651 158.789 124.589 158.672 125.422 158.672C128.312 158.672 130.969 159.375 133.391 160.781C135.812 162.214 137.74 164.102 139.172 166.445C140.63 168.789 141.359 171.38 141.359 174.219V179.648C141.359 182.539 140.656 185.221 139.25 187.695C137.818 190.143 135.917 192.109 133.547 193.594C131.177 195.052 128.547 195.781 125.656 195.781Z" fill="black"/>
<path d="M151.27 195H146.738C146.634 195 146.582 194.935 146.582 194.805L146.66 167.324C146.66 167.22 146.712 167.168 146.816 167.168H151.699C151.803 167.168 151.895 167.22 151.973 167.324L155.625 172.598L159.258 167.324C159.336 167.22 159.434 167.168 159.551 167.168H164.453C164.57 167.168 164.629 167.22 164.629 167.324L164.707 194.805C164.707 194.935 164.655 195 164.551 195H160.02C159.915 195 159.863 194.935 159.863 194.805L159.824 174.395L155.625 180.488L151.465 174.395L151.426 194.805C151.426 194.935 151.374 195 151.27 195Z" fill="black"/>
<path d="M180.953 182H169.762C169.664 182 169.615 181.951 169.615 181.854V178.455C169.615 178.416 169.635 178.377 169.674 178.338L177.086 168.172C177.223 167.986 177.335 167.752 177.423 167.469C177.521 167.176 177.569 166.922 177.569 166.707C177.569 166.121 177.359 165.584 176.939 165.096C176.52 164.607 175.987 164.363 175.343 164.363C174.728 164.363 174.205 164.598 173.775 165.066C173.346 165.535 173.131 166.131 173.131 166.854V168.318C173.131 168.416 173.082 168.465 172.984 168.465H169.615C169.537 168.465 169.498 168.416 169.498 168.318V166.854C169.498 165.73 169.776 164.71 170.333 163.792C170.88 162.874 171.598 162.146 172.486 161.609C173.375 161.062 174.327 160.789 175.343 160.789C176.417 160.789 177.398 161.062 178.287 161.609C179.166 162.166 179.869 162.894 180.396 163.792C180.934 164.69 181.202 165.662 181.202 166.707C181.202 167.361 181.085 168.03 180.851 168.714C180.626 169.388 180.313 169.988 179.913 170.516L174.215 178.338H180.953C181.041 178.338 181.085 178.377 181.085 178.455V181.854C181.085 181.951 181.041 182 180.953 182Z" fill="black"/>
</g>
<rect x="59.5" y="59.5" width="147" height="147" stroke="black" stroke-width="13"/>
<defs>
<clipPath id="clip0_69_50">
<rect x="53" y="53" width="160" height="160" fill="white"/>
</clipPath>
</defs>
</svg>
