<svg width="266" height="266" viewBox="0 0 266 266" fill="none" xmlns="http://www.w3.org/2000/svg">
<rect width="266" height="266" rx="133" fill="#EA985D"/>
<rect x="66.5" y="65.5" width="74" height="74" fill="#BF7037" stroke="black" stroke-width="11"/>
<rect x="126.5" y="126.5" width="75" height="74" fill="#EA985D" stroke="black" stroke-width="11"/>
<path opacity="0.99" d="M149.939 180H144.955C144.812 180 144.74 179.928 144.74 179.785L144.783 149.557C144.783 149.442 144.84 149.385 144.955 149.385H149.896C150.011 149.385 150.068 149.442 150.068 149.557L150.111 179.785C150.111 179.928 150.054 180 149.939 180ZM163.002 180.43C161.14 180.43 159.486 180.029 158.039 179.227C156.607 178.424 155.482 177.357 154.666 176.025C153.864 174.679 153.463 173.204 153.463 171.6L153.506 157.656C153.506 156.023 153.914 154.555 154.73 153.252C155.533 151.934 156.65 150.882 158.082 150.094C159.514 149.292 161.154 148.891 163.002 148.891C164.893 148.891 166.54 149.285 167.943 150.072C169.347 150.86 170.45 151.92 171.252 153.252C172.068 154.57 172.477 156.038 172.477 157.656L172.52 171.6C172.52 173.189 172.118 174.658 171.316 176.004C170.5 177.35 169.376 178.424 167.943 179.227C166.525 180.029 164.878 180.43 163.002 180.43ZM167.191 171.6L167.148 157.656C167.148 156.625 166.762 155.787 165.988 155.143C165.229 154.498 164.234 154.176 163.002 154.176C161.742 154.176 160.732 154.498 159.973 155.143C159.214 155.787 158.834 156.625 158.834 157.656V171.6C158.834 172.688 159.214 173.548 159.973 174.178C160.732 174.808 161.742 175.123 163.002 175.123C164.234 175.123 165.236 174.808 166.01 174.178C166.798 173.548 167.191 172.688 167.191 171.6ZM181.049 180H176.064C175.921 180 175.85 179.928 175.85 179.785L175.893 149.557C175.893 149.442 175.95 149.385 176.064 149.385H181.006C181.12 149.385 181.178 149.442 181.178 149.557L181.221 179.785C181.221 179.928 181.163 180 181.049 180Z" fill="black"/>
<path d="M116.278 120.439C118.21 120.496 119.823 118.976 119.88 117.044L120.818 85.5582C120.876 83.6261 119.356 82.0131 117.424 81.9556C115.492 81.898 113.879 83.4177 113.821 85.3498L112.987 113.337L84.9999 112.504C83.0678 112.446 81.4548 113.966 81.3972 115.898C81.3397 117.83 82.8594 119.443 84.7915 119.501L116.278 120.439ZM88.4525 92.4001L113.834 119.34L118.929 114.54L93.5475 87.5999L88.4525 92.4001Z" fill="black"/>
</svg>
