<svg width="266" height="266" viewBox="0 0 266 266" fill="none" xmlns="http://www.w3.org/2000/svg">
<rect width="266" height="266" rx="133" fill="#EA985D"/>
<path d="M181.6 174C181.6 184.667 178.333 193.467 171.8 200.4C165.267 207.333 156.333 211.733 145 213.6C144.333 213.867 144 214.267 144 214.8L144.2 227.8C144.2 228.467 143.933 229 143.4 229.4C143 229.933 142.467 230.2 141.8 230.2H121.8C121.133 230.2 120.533 229.933 120 229.4C119.6 229 119.4 228.467 119.4 227.8L119.6 214.6C119.6 214.067 119.267 213.667 118.6 213.4C107.267 211.133 98.3333 206.467 91.8 199.4C85.4 192.333 82.2 183.467 82.2 172.8V168.4C82.2 167.733 82.4 167.2 82.8 166.8C83.3333 166.267 83.9333 166 84.6 166H106.2C106.867 166 107.4 166.267 107.8 166.8C108.333 167.2 108.6 167.733 108.6 168.4V171.4C108.6 176.733 110.933 181.267 115.6 185C120.267 188.6 126.667 190.4 134.8 190.4C141.6 190.4 146.6 188.933 149.8 186C153.133 182.933 154.8 179.2 154.8 174.8C154.8 171.6 153.8 168.933 151.8 166.8C149.8 164.533 147 162.6 143.4 161C139.933 159.267 134.4 156.933 126.8 154C118.133 150.933 110.867 147.8 105 144.6C99.1333 141.4 94.1333 137.067 90 131.6C86 126 84 119.133 84 111C84 100.733 87.0667 92.2667 93.2 85.6C99.4667 78.8 107.867 74.4 118.4 72.4C119.067 72.1333 119.4 71.7333 119.4 71.2L119 56.6C119 55.9333 119.2 55.4 119.6 55C120.133 54.4667 120.733 54.2 121.4 54.2H141.4C142.067 54.2 142.6 54.4667 143 55C143.533 55.4 143.8 55.9333 143.8 56.6L143.6 71.6C143.6 72.1333 143.933 72.5333 144.6 72.8C155.667 75.0667 164.467 79.9333 171 87.4C177.533 94.7333 180.8 103.733 180.8 114.4V117.4C180.8 118.067 180.533 118.667 180 119.2C179.6 119.6 179.067 119.8 178.4 119.8H156.6C155.933 119.8 155.333 119.6 154.8 119.2C154.4 118.667 154.2 118.067 154.2 117.4V115.8C154.2 110.2 152 105.467 147.6 101.6C143.2 97.6 137.2 95.6 129.6 95.6C123.6 95.6 118.933 96.9333 115.6 99.6C112.267 102.267 110.6 105.933 110.6 110.6C110.6 113.933 111.533 116.733 113.4 119C115.4 121.267 118.333 123.333 122.2 125.2C126.067 127.067 132.067 129.467 140.2 132.4C149.133 135.733 156.2 138.733 161.4 141.4C166.6 144.067 171.267 148.067 175.4 153.4C179.533 158.733 181.6 165.6 181.6 174Z" fill="black"/>
</svg>
