<svg width="714" height="697" viewBox="0 0 714 697" fill="none" xmlns="http://www.w3.org/2000/svg">
<path d="M719.531 310.522H707.631V448.397H719.531V310.522Z" fill="#FFE8BB"/>
<path d="M386.798 462.274L383.002 458.404C364.011 456.92 335.152 449.307 316.875 426.769C315.806 425.456 314.826 424.072 313.943 422.629C312.305 419.995 311.152 417.09 310.54 414.051C307.435 397.79 324.267 385.955 332.195 384.019C342.17 381.611 359.333 384.742 366.251 386.208C368.145 386.616 369.278 386.883 369.278 386.883C370.515 386.979 371.756 386.979 372.993 386.883C373.844 386.835 374.758 386.772 375.735 386.694C376.051 386.694 376.367 386.664 376.697 386.631C376.887 386.631 377.069 386.631 377.266 386.601C381.029 386.337 384.807 386.386 388.563 386.742C389.637 386.853 390.755 387.009 391.906 387.198C392.534 387.309 393.166 387.436 393.812 387.569C394.332 387.68 394.852 387.807 395.387 387.94C395.781 388.037 396.175 388.144 396.569 388.256C397.375 388.474 398.177 388.712 398.98 388.979C399.017 388.994 399.054 389.005 399.091 389.012C399.463 389.135 399.834 389.261 400.206 389.406V389.387C405.986 391.524 411.343 394.663 416.028 398.662C420.393 402.346 425.2 406.186 430.197 410.011C436.884 415.112 443.909 420.195 450.778 424.821C450.778 424.821 453.271 425.296 456.99 425.767L457.038 425.374V379.57H548.163C563.023 411.105 586.305 468.325 602.807 514.221C619.97 561.943 675.131 645.295 686.32 673.154C699.639 706.269 699.638 724.723 699.638 724.723H503.646C503.732 717.444 502.963 710.18 501.347 703.079L508.487 671.173C502.94 671.314 494.206 671.173 494.206 671.173V671.202C493.2 670.983 488.203 669.741 467.83 664.435C436.75 656.344 369.356 572.123 369.356 572.123C362.55 568.944 350.618 554.089 343.556 544.754C340.035 540.102 337.89 534.556 337.363 528.746H337.251C337.251 528.746 301.84 524.665 282.815 518.61C282.815 518.61 252.508 510.678 244.061 507.042C244.061 507.042 191.107 487.416 177.726 479.689C164.344 471.961 170.667 439.569 197.456 447.311C213.234 451.86 227.135 456.471 227.781 456.694C233.815 461.023 241.062 463.35 248.493 463.335H287.682C287.682 463.335 333.354 473.266 341.943 475.17L343.058 475.233C343.963 471.092 345.42 467.089 347.39 463.335H386.003L386.798 462.274Z" fill="#FFE8BB"/>
<path d="M688.782 354.612C688.893 354.456 689.001 354.3 689.112 354.156C688.715 358.099 687.225 361.853 684.811 365C683.183 367.331 680.839 369.07 678.131 369.954C675.426 370.838 672.506 370.819 669.813 369.901L660.526 381.672L650.124 368.484L659.411 356.712C658.631 353.455 658.575 350.068 659.24 346.787C659.909 343.506 661.283 340.409 663.271 337.713C665.359 334.906 668.412 332.971 671.845 332.281C671.708 332.406 671.585 332.544 671.474 332.693C669.144 335.875 667.889 339.713 667.889 343.654C667.889 347.595 669.144 351.434 671.474 354.616C672.443 356.011 673.736 357.151 675.244 357.939C676.753 358.726 678.428 359.137 680.13 359.137C681.831 359.137 683.507 358.725 685.011 357.937C686.519 357.149 687.812 356.008 688.782 354.612Z" fill="#A8EB53"/>
<path d="M680.46 402.24C682.366 404.837 683.391 407.969 683.391 411.189C683.391 414.406 682.366 417.541 680.46 420.134C679.669 421.273 678.61 422.208 677.38 422.85C676.151 423.491 674.78 423.829 673.39 423.829C672.001 423.829 670.63 423.491 669.4 422.85C668.171 422.208 667.112 421.273 666.321 420.134C664.426 417.611 663.404 414.539 663.408 411.386L663.282 411.556L650.09 394.861L639.688 381.672L630.4 369.901C627.703 370.823 624.78 370.845 622.071 369.961C619.359 369.078 617.011 367.337 615.381 365.004C612.977 361.853 611.491 358.1 611.094 354.159C611.201 354.304 611.298 354.46 611.424 354.616C612.39 356.014 613.683 357.156 615.191 357.946C616.699 358.735 618.375 359.147 620.076 359.147C621.778 359.147 623.453 358.735 624.962 357.946C626.47 357.156 627.763 356.014 628.729 354.616C631.062 351.435 632.317 347.596 632.317 343.654C632.317 339.713 631.062 335.873 628.729 332.693C628.621 332.55 628.506 332.412 628.383 332.281C631.805 332.974 634.851 334.909 636.928 337.713C638.919 340.407 640.297 343.503 640.966 346.785C641.638 350.066 641.583 353.454 640.806 356.712L650.094 368.484L660.496 381.672L673.673 398.367L673.546 398.542C674.902 398.597 676.229 398.961 677.425 399.603C678.625 400.241 679.661 401.146 680.46 402.24Z" fill="#A8EB53"/>
<path d="M639.673 381.662L650.09 394.851L645.346 400.865L639.673 381.662Z" fill="#313553"/>
<path d="M639.672 381.662L645.345 400.865L636.897 411.549L636.756 411.379C636.763 414.536 635.738 417.608 633.84 420.131C633.048 421.27 631.99 422.201 630.76 422.843C629.527 423.488 628.16 423.822 626.77 423.822C625.381 423.822 624.014 423.488 622.78 422.843C621.551 422.201 620.492 421.27 619.7 420.131C617.806 417.53 616.784 414.399 616.784 411.182C616.784 407.965 617.806 404.834 619.7 402.234C620.503 401.135 621.539 400.234 622.739 399.592C623.936 398.95 625.262 398.587 626.621 398.524L626.48 398.349L639.672 381.662Z" fill="#A8EB53"/>
<path d="M637.799 28.7923H626.45V160.327H637.799V28.7923Z" fill="#FFE8BB"/>
<path d="M584.919 92.473C585.655 93.3003 586.126 94.3306 586.268 95.4284C586.409 96.5265 586.216 97.6418 585.71 98.6279L584.938 100.045L577.879 113.06C578.611 114.679 579.046 116.418 579.157 118.191C579.566 124.457 576.115 129.777 571.463 130.063C566.812 130.348 562.703 125.533 562.291 119.267C561.879 113 565.334 107.684 569.985 107.395C570.847 107.336 571.708 107.453 572.522 107.74L578.838 96.1273L580.379 93.2781C580.554 92.8518 580.833 92.4763 581.189 92.187C581.546 91.8976 581.973 91.7035 582.426 91.623C582.879 91.5429 583.348 91.5785 583.782 91.7273C584.217 91.8757 584.611 92.1324 584.919 92.473Z" fill="#A8EB53"/>
<path d="M548.164 379.579H457.038V211.486C457.038 211.486 470.449 215.593 487.598 244.961C504.746 274.33 531.725 345.332 546.432 375.924C546.997 377.093 547.588 378.302 548.164 379.579Z" fill="#FFE8BB"/>
<path d="M494.387 671.239L494.197 671.176C494.197 671.176 502.931 671.317 508.478 671.176L501.337 703.082C498.562 688.178 494.402 671.936 494.212 671.194C494.268 671.213 494.327 671.227 494.387 671.239Z" fill="#313553"/>
<path d="M457.04 379.57V425.341L456.992 425.734C453.277 425.263 450.78 424.788 450.78 424.788C443.911 420.162 436.883 415.079 430.199 409.978L430.418 409.696C431.525 407.095 432.094 404.301 432.09 401.478V379.589L457.04 379.57Z" fill="#A8EB53"/>
<path d="M432.089 115.154V92.5233C432.089 86.9149 429.857 81.5358 425.889 77.5702C421.918 73.6042 416.531 71.3763 410.914 71.3763H285.31C279.694 71.3763 274.307 73.6042 270.336 77.5702C266.365 81.5358 264.134 86.9149 264.134 92.5233V138.635C264.134 141.412 264.682 144.162 265.746 146.728C266.81 149.293 268.37 151.624 270.336 153.588C272.303 155.552 274.637 157.11 277.206 158.172C279.776 159.235 282.529 159.782 285.31 159.782H410.903C413.685 159.782 416.438 159.235 419.005 158.172C421.576 157.11 423.909 155.552 425.878 153.588C427.843 151.624 429.404 149.293 430.466 146.728C431.532 144.162 432.078 141.412 432.078 138.635L432.089 115.154ZM235.529 250.51V57.8163C235.53 47.7444 239.536 38.0854 246.667 30.9633C253.798 23.8411 263.47 19.8389 273.556 19.837H278.11C278.11 27.4252 281.129 34.7027 286.502 40.0684C291.875 45.4342 299.162 48.4485 306.76 48.4485H378.032C385.63 48.4444 392.918 45.4293 398.29 40.065C403.666 34.7005 406.69 27.4254 406.697 19.837H418.994C423.991 19.8355 428.935 20.8168 433.553 22.7247C438.167 24.6327 442.361 27.4299 445.894 30.9567C449.427 34.4835 452.228 38.6708 454.142 43.2794C456.055 47.8879 457.039 52.8278 457.039 57.8163V379.573H432.089V355.381C432.089 349.772 429.857 344.393 425.889 340.427C421.918 336.461 416.531 334.234 410.914 334.234H285.31C279.694 334.234 274.307 336.461 270.336 340.427C266.365 344.393 264.134 349.772 264.134 355.381V401.481C264.134 407.091 266.365 412.47 270.336 416.432C274.307 420.398 279.694 422.628 285.31 422.628H313.949C314.832 424.071 315.811 425.455 316.88 426.768C335.147 449.307 364.005 456.908 383.007 458.404L386.804 462.273L386.016 463.345H273.556C263.467 463.338 253.795 459.331 246.664 452.208C239.533 445.081 235.528 435.416 235.529 425.344V250.51ZM264.164 250.51V270.058C264.164 275.666 266.395 281.045 270.366 285.011C274.337 288.977 279.724 291.205 285.34 291.205H410.933C416.55 291.205 421.936 288.977 425.908 285.011C429.875 281.045 432.108 275.666 432.108 270.058V223.957C432.108 218.349 429.875 212.97 425.908 209.004C421.936 205.038 416.55 202.81 410.933 202.81H285.31C279.694 202.81 274.307 205.038 270.336 209.004C266.365 212.97 264.134 218.349 264.134 223.957L264.164 250.51Z" fill="#A8EB53"/>
<path d="M432.093 379.577V401.466C432.096 404.289 431.528 407.083 430.421 409.684L430.202 409.966C425.205 406.141 420.398 402.301 416.033 398.617C411.348 394.617 405.991 391.479 400.21 389.342C401.648 386.852 402.491 384.062 402.677 381.195C402.867 378.327 402.387 375.451 401.284 372.799C400.181 370.142 398.483 367.776 396.317 365.882C394.151 363.987 391.581 362.615 388.798 361.872C386.019 361.129 383.103 361.034 380.279 361.595C377.456 362.157 374.8 363.359 372.519 365.109C370.234 366.859 368.384 369.11 367.111 371.69C365.837 374.268 365.175 377.102 365.174 379.978C365.177 382.096 365.544 384.2 366.259 386.196C359.342 384.73 342.178 381.599 332.204 384.007C324.276 385.943 307.443 397.778 310.549 414.039C311.161 417.078 312.314 419.983 313.952 422.617H285.313C279.697 422.617 274.311 420.387 270.34 416.421C266.368 412.459 264.137 407.079 264.137 401.47V355.384C264.137 349.775 266.368 344.397 270.34 340.431C274.311 336.465 279.697 334.237 285.313 334.237H410.906C416.523 334.237 421.91 336.465 425.881 340.431C429.849 344.397 432.081 349.775 432.081 355.384V379.577H432.093Z" fill="#A8EB53"/>
<path d="M264.137 250.506V223.954C264.137 218.345 266.368 212.966 270.34 209C274.311 205.034 279.697 202.807 285.313 202.807H410.906C416.523 202.807 421.91 205.034 425.881 209C429.849 212.966 432.081 218.345 432.081 223.954V270.054C432.081 275.662 429.849 281.041 425.881 285.007C421.91 288.973 416.523 291.201 410.906 291.201H285.313C279.697 291.201 274.311 288.973 270.34 285.007C266.368 281.041 264.137 275.662 264.137 270.054V250.506ZM325.227 250.914C325.225 247.208 324.124 243.587 322.061 240.506C319.999 237.425 317.068 235.025 313.64 233.607C310.212 232.19 306.439 231.82 302.8 232.543C299.161 233.266 295.818 235.051 293.194 237.671C290.57 240.291 288.783 243.63 288.059 247.264C287.335 250.898 287.706 254.665 289.125 258.089C290.544 261.513 292.948 264.44 296.033 266.5C299.118 268.559 302.744 269.659 306.455 269.661C308.921 269.662 311.363 269.177 313.642 268.236C315.92 267.294 317.991 265.914 319.735 264.173C321.479 262.432 322.863 260.365 323.807 258.09C324.751 255.815 325.238 253.376 325.238 250.914H325.227Z" fill="#A8EB53"/>
<path d="M432.093 115.153V138.633C432.093 141.41 431.547 144.16 430.48 146.726C429.418 149.292 427.858 151.623 425.892 153.586C423.923 155.55 421.59 157.108 419.02 158.171C416.452 159.233 413.7 159.78 410.917 159.78H285.313C282.532 159.78 279.779 159.233 277.209 158.171C274.64 157.108 272.306 155.55 270.34 153.586C268.373 151.623 266.813 149.292 265.749 146.726C264.685 144.16 264.137 141.41 264.137 138.633V92.5328C264.137 86.9244 266.368 81.5457 270.34 77.5797C274.311 73.6137 279.697 71.3858 285.313 71.3858H410.906C416.523 71.3858 421.91 73.6137 425.881 77.5797C429.849 81.5457 432.081 86.9244 432.081 92.5328L432.093 115.153ZM402.714 115.561C402.714 111.853 401.615 108.229 399.549 105.146C397.487 102.063 394.556 99.6601 391.127 98.241C387.695 96.8223 383.92 96.4509 380.28 97.1744C376.639 97.8978 373.295 99.6831 370.669 102.305C368.043 104.927 366.256 108.267 365.531 111.903C364.807 115.54 365.179 119.309 366.599 122.735C368.02 126.16 370.426 129.088 373.514 131.148C376.602 133.208 380.231 134.307 383.942 134.307C388.921 134.304 393.691 132.327 397.209 128.812C400.727 125.297 402.703 120.531 402.707 115.561H402.714Z" fill="#A8EB53"/>
<path d="M278.112 19.837H406.699C406.692 27.4254 403.668 34.7005 398.292 40.065C392.92 45.4293 385.632 48.4444 378.034 48.4485H306.762C299.163 48.4485 291.876 45.4342 286.503 40.0684C281.13 34.7027 278.112 27.4252 278.112 19.837Z" fill="#313553"/>
<path d="M402.702 379.983C402.699 383.27 401.837 386.498 400.199 389.347L399.062 388.976C399.025 388.969 398.987 388.958 398.95 388.943C398.148 388.661 397.345 388.424 396.539 388.22C396.145 388.108 395.752 388.001 395.358 387.904C394.823 387.763 394.303 387.652 393.783 387.533C393.136 387.411 392.505 387.285 391.877 387.162C390.74 386.958 389.648 386.817 388.533 386.706C384.778 386.342 380.999 386.294 377.236 386.565C377.047 386.565 376.865 386.595 376.668 386.595C376.337 386.628 376.021 386.643 375.706 386.658C374.714 386.721 373.8 386.784 372.964 386.847C371.727 386.943 370.485 386.943 369.249 386.847C369.249 386.847 368.134 386.58 366.221 386.172C365.506 384.176 365.139 382.072 365.136 379.954C365.101 377.468 365.561 375.005 366.489 372.701C367.416 370.394 368.793 368.297 370.54 366.528C372.288 364.759 374.368 363.354 376.66 362.396C378.956 361.437 381.419 360.943 383.908 360.943C386.394 360.943 388.857 361.437 391.153 362.396C393.445 363.354 395.525 364.759 397.275 366.528C399.021 368.297 400.395 370.394 401.324 372.701C402.253 375.005 402.71 377.468 402.676 379.954L402.702 379.983Z" fill="white"/>
<path d="M383.94 134.307C394.309 134.307 402.712 125.914 402.712 115.561C402.712 105.207 394.309 96.8141 383.94 96.8141C373.572 96.8141 365.168 105.207 365.168 115.561C365.168 125.914 373.572 134.307 383.94 134.307Z" fill="white"/>
<path d="M287.676 463.334H347.39C345.421 467.089 343.964 471.092 343.059 475.232L341.944 475.169C333.348 473.266 287.676 463.334 287.676 463.334Z" fill="#313553"/>
<path d="M306.467 232.175C310.18 232.172 313.811 233.269 316.9 235.328C319.989 237.386 322.398 240.313 323.82 243.739C325.244 247.164 325.617 250.934 324.894 254.571C324.171 258.209 322.384 261.551 319.759 264.174C317.134 266.797 313.789 268.584 310.147 269.308C306.505 270.032 302.73 269.661 299.298 268.242C295.868 266.823 292.935 264.42 290.872 261.336C288.809 258.252 287.709 254.627 287.709 250.918C287.711 245.95 289.688 241.185 293.205 237.671C296.722 234.157 301.491 232.18 306.467 232.175Z" fill="white"/>
<path d="M262.523 19.837H273.557C263.471 19.8389 253.8 23.8411 246.669 30.9633C239.538 38.0854 235.531 47.7444 235.53 57.8163V250.51H224.497V57.8163C224.498 47.7444 228.504 38.0854 235.635 30.9633C242.766 23.8411 252.438 19.8389 262.523 19.837Z" fill="#313553"/>
<path d="M273.556 463.335H262.523C252.433 463.335 242.756 459.332 235.622 452.205C228.487 445.082 224.478 435.417 224.477 425.341V250.507H235.529V425.341C235.531 435.413 239.536 445.074 246.667 452.198C253.798 459.324 263.47 463.328 273.556 463.335Z" fill="#313553"/>
<path d="M212.906 357.618V405.7C212.906 405.7 195.709 402.758 172.323 398.869C148.937 394.981 148.919 366.963 161.416 357.618C173.913 348.272 211.297 357.618 211.297 357.618H212.906Z" fill="#FFE8BB"/>
<path d="M139.56 234.723V260H131.914C129.095 260 127.676 264.281 129.685 266.8L135.091 273.586L120.844 291.464L115.431 284.678C113.429 282.163 110.026 283.936 110.026 287.483V297.081H89.868V287.483C89.868 283.94 86.4614 282.163 84.459 284.678L79.0537 291.464L64.8067 273.586L70.212 266.8C72.2144 264.281 70.7952 260 67.983 260H60.3301V234.723H67.983C70.8027 234.723 72.2218 230.427 70.212 227.923L64.8067 221.126L79.0537 203.248L84.459 210.03C86.4614 212.534 89.868 210.772 89.868 207.214V197.627H110.026V207.228C110.026 210.783 113.429 212.549 115.431 210.044L120.836 203.262L135.083 221.126L129.678 227.908C127.676 230.412 129.095 234.708 131.907 234.708L139.56 234.723ZM111.898 247.363C111.898 239.068 106.541 232.345 99.9543 232.345C93.3676 232.345 87.992 239.068 87.992 247.363C87.992 255.659 93.349 262.363 99.9543 262.363C106.56 262.363 111.898 255.629 111.898 247.363Z" fill="#A8EB53"/>
<path d="M38.3156 175.621H25.3911V325.398H38.3156V175.621Z" fill="#FFE8BB"/>
<path d="M38.314 175.621L164.821 186.64V314.379L38.314 325.398" stroke="#313553" stroke-width="0.319374" stroke-linecap="round" stroke-linejoin="round"/>
<path d="M38.3156 175.621H25.3911V325.398H38.3156V175.621Z" stroke="#313553" stroke-width="0.319374" stroke-linecap="round" stroke-linejoin="round"/>
<path d="M626.449 28.7923L515.356 52.6366V172.696L626.449 160.323" stroke="#313553" stroke-width="0.319374" stroke-linecap="round" stroke-linejoin="round"/>
<path d="M637.799 28.7923H626.45V160.327H637.799V28.7923Z" stroke="#313553" stroke-width="0.319374" stroke-linecap="round" stroke-linejoin="round"/>
<path d="M707.629 310.522L591.157 320.662V438.247L707.629 448.401" stroke="#313553" stroke-width="0.319374" stroke-linecap="round" stroke-linejoin="round"/>
<path d="M719.531 310.522H707.631V448.397H719.531V310.522Z" stroke="#313553" stroke-width="0.319374" stroke-linecap="round" stroke-linejoin="round"/>
<path d="M406.7 19.837H418.996C423.993 19.8355 428.938 20.8168 433.555 22.7247C438.169 24.6327 442.364 27.4299 445.897 30.9567C449.43 34.4835 452.231 38.6708 454.144 43.2794C456.057 47.8879 457.042 52.8278 457.042 57.8163V425.344" stroke="#313553" stroke-width="0.319374" stroke-linecap="round" stroke-linejoin="round"/>
<path d="M276.091 19.837H278.1" stroke="#313553" stroke-width="0.319374" stroke-linecap="round" stroke-linejoin="round"/>
<path d="M262.523 463.338C252.433 463.338 242.756 459.335 235.622 452.208C228.487 445.085 224.478 435.42 224.477 425.344V57.8163C224.478 52.8278 225.462 47.8879 227.375 43.2794C229.287 38.6708 232.09 34.4835 235.622 30.9567C239.155 27.4299 243.349 24.6327 247.965 22.7247C252.581 20.8168 257.527 19.8355 262.523 19.837" stroke="#313553" stroke-width="0.319374" stroke-linecap="round" stroke-linejoin="round"/>
<path d="M386.003 463.334H347.389H287.674H276.091" stroke="#313553" stroke-width="0.319374" stroke-linecap="round" stroke-linejoin="round"/>
<path d="M273.556 463.338C263.469 463.33 253.797 459.327 246.666 452.2C239.536 445.077 235.53 435.416 235.529 425.344V57.8163C235.53 47.7444 239.536 38.0854 246.667 30.9633C253.798 23.8411 263.47 19.8389 273.556 19.837" stroke="#313553" stroke-width="0.319374" stroke-linecap="round" stroke-linejoin="round"/>
<path d="M227.79 456.712C223.182 453.421 219.428 449.077 216.84 444.042C214.252 439.011 212.905 433.432 212.912 427.774V55.3899C212.911 50.719 213.831 46.0934 215.622 41.7779C217.412 37.4628 220.036 33.542 223.344 30.2401C226.653 26.9383 230.581 24.32 234.903 22.5349C239.225 20.7499 243.858 19.8331 248.535 19.837H276.115" stroke="#313553" stroke-width="0.319374" stroke-linecap="round" stroke-linejoin="round"/>
<path d="M276.099 463.334H248.538C241.107 463.349 233.861 461.022 227.827 456.693" stroke="#313553" stroke-width="0.319374" stroke-linecap="round" stroke-linejoin="round"/>
<path d="M406.699 19.837C406.692 27.4254 403.668 34.7005 398.292 40.065C392.92 45.4293 385.632 48.4444 378.034 48.4485H306.762C299.163 48.4485 291.876 45.4342 286.503 40.0684C281.13 34.7027 278.112 27.4252 278.112 19.837H406.699Z" stroke="#313553" stroke-width="0.319374" stroke-linecap="round" stroke-linejoin="round"/>
<path d="M410.91 159.773H285.313C279.697 159.773 274.311 157.545 270.34 153.579C266.368 149.613 264.137 144.234 264.137 138.626V92.5328C264.137 86.9244 266.368 81.5457 270.34 77.5797C274.311 73.6137 279.697 71.3858 285.313 71.3858H410.906C416.523 71.3858 421.91 73.6137 425.881 77.5797C429.849 81.5457 432.081 86.9244 432.081 92.5328V138.633C432.078 144.24 429.849 149.616 425.877 153.581C421.906 157.545 416.523 159.772 410.91 159.773Z" stroke="#313553" stroke-width="0.319374" stroke-linecap="round" stroke-linejoin="round"/>
<path d="M410.91 291.194H285.313C279.697 291.194 274.311 288.965 270.34 285C266.368 281.034 264.137 275.655 264.137 270.047V223.954C264.137 218.345 266.368 212.966 270.34 209C274.311 205.034 279.697 202.807 285.313 202.807H410.906C416.523 202.807 421.91 205.034 425.881 209C429.849 212.966 432.081 218.345 432.081 223.954V270.054C432.078 275.661 429.849 281.037 425.877 285.001C421.906 288.965 416.523 291.193 410.91 291.194Z" stroke="#313553" stroke-width="0.319374" stroke-linecap="round" stroke-linejoin="round"/>
<path d="M313.967 422.624H285.313C279.697 422.624 274.311 420.394 270.34 416.428C266.368 412.466 264.137 407.087 264.137 401.477V355.384C264.137 349.775 266.368 344.397 270.34 340.431C274.311 336.465 279.697 334.237 285.313 334.237H410.906C416.523 334.237 421.91 336.465 425.881 340.431C429.849 344.397 432.081 349.775 432.081 355.384V401.485C432.085 404.308 431.517 407.101 430.41 409.702" stroke="#313553" stroke-width="0.319374" stroke-linecap="round" stroke-linejoin="round"/>
<path d="M176.048 250.507H212.912H224.481H235.514H264.15H278.114" stroke="#313553" stroke-width="0.319374" stroke-linecap="round" stroke-linejoin="round"/>
<path d="M366.26 386.199C359.342 384.733 342.179 381.602 332.204 384.01C324.276 385.946 307.444 397.781 310.549 414.042C311.162 417.081 312.314 419.986 313.952 422.62C314.836 424.063 315.815 425.447 316.883 426.76C335.15 449.298 364.008 456.9 383.01 458.395L386.807 462.265C396.043 471.725 419.447 495.655 425.674 502.333C425.674 502.333 443.829 573.409 463.908 593.462C491.08 620.611 506.631 628.354 524.091 630.951" stroke="#313553" stroke-width="0.319374" stroke-linecap="round" stroke-linejoin="round"/>
<path d="M375.73 386.667C374.739 386.73 373.827 386.793 372.992 386.856" stroke="#313553" stroke-width="0.319374" stroke-linecap="round" stroke-linejoin="round"/>
<path d="M391.889 387.176C390.752 386.971 389.66 386.831 388.545 386.719C384.789 386.356 381.011 386.307 377.248 386.578" stroke="#313553" stroke-width="0.319374" stroke-linecap="round" stroke-linejoin="round"/>
<path d="M395.366 387.893C394.833 387.753 394.315 387.642 393.796 387.524" stroke="#313553" stroke-width="0.319374" stroke-linecap="round" stroke-linejoin="round"/>
<path d="M398.962 388.934C398.161 388.652 397.359 388.415 396.554 388.211" stroke="#313553" stroke-width="0.319374" stroke-linecap="round" stroke-linejoin="round"/>
<path d="M482.034 442.465C471.037 437.661 460.565 431.736 450.779 424.791C443.91 420.164 436.882 415.082 430.198 409.98C425.202 406.155 420.394 402.316 416.029 398.632C411.345 394.632 405.988 391.494 400.207 389.357L399.07 388.986" stroke="#313553" stroke-width="0.319374" stroke-linecap="round" stroke-linejoin="round"/>
<path d="M450.781 424.807C450.781 424.807 453.273 425.282 456.992 425.753C464.682 426.744 477.67 427.782 484.888 424.807" stroke="#313553" stroke-width="0.319374" stroke-linecap="round" stroke-linejoin="round"/>
<path d="M376.699 386.594C372.631 391.046 352.994 405.953 355.524 424.778" stroke="#313553" stroke-width="0.319374" stroke-linecap="round" stroke-linejoin="round"/>
<path d="M310.55 414.044C317.958 419.583 336.157 422.948 343.283 418.952C343.283 418.952 347.477 397.627 356.898 390.53" stroke="#313553" stroke-width="0.319374" stroke-linecap="round" stroke-linejoin="round"/>
<path d="M699.639 724.742C699.639 724.742 699.639 706.278 686.321 673.173C675.131 645.315 619.971 561.959 602.808 514.241C586.306 468.344 563.012 411.103 548.164 379.59C547.58 378.314 546.997 377.104 546.432 375.921C531.725 345.324 504.761 274.341 487.598 244.958C470.435 215.574 457.038 211.486 457.038 211.486" stroke="#313553" stroke-width="0.319374" stroke-linecap="round" stroke-linejoin="round"/>
<path d="M494.387 671.239L494.197 671.176V671.205C494.387 671.947 498.548 688.19 501.323 703.093C502.939 710.194 503.708 717.458 503.622 724.737" stroke="#313553" stroke-width="0.319374" stroke-linecap="round" stroke-linejoin="round"/>
<path d="M337.889 518.615C337.384 521.16 337.172 523.75 337.257 526.343C337.257 527.148 337.306 527.95 337.369 528.751C337.895 534.561 340.041 540.107 343.562 544.76C350.62 554.094 362.556 568.949 369.362 572.128C369.362 572.128 436.756 656.345 467.836 664.441C488.213 669.746 493.209 670.989 494.212 671.208C494.268 671.222 494.327 671.234 494.387 671.241C494.409 671.245 494.428 671.245 494.45 671.241" stroke="#313553" stroke-width="0.319374" stroke-linecap="round" stroke-linejoin="round"/>
<path d="M337.256 528.751C337.256 528.751 301.845 524.67 282.82 518.616C282.82 518.616 252.513 510.684 244.065 507.048C244.065 507.048 191.112 487.422 177.73 479.694C164.349 471.966 170.672 439.574 197.461 447.317C213.238 451.865 227.14 456.477 227.786 456.699" stroke="#313553" stroke-width="0.319374" stroke-linecap="round" stroke-linejoin="round"/>
<path d="M239.908 473.597C239.908 473.597 238.051 481.937 237.594 486.11" stroke="#313553" stroke-width="0.319374" stroke-linecap="round" stroke-linejoin="round"/>
<path d="M288.767 481.468C288.767 481.468 286.91 494.531 286.449 498.704" stroke="#313553" stroke-width="0.319374" stroke-linecap="round" stroke-linejoin="round"/>
<path d="M494.197 671.176C494.197 671.176 502.931 671.317 508.478 671.176L501.337 703.082" stroke="#313553" stroke-width="0.319374" stroke-linecap="round" stroke-linejoin="round"/>
<path d="M211.305 357.615C211.305 357.615 173.892 348.266 161.424 357.615C148.956 366.964 148.942 394.978 172.331 398.866C195.721 402.754 212.914 405.696 212.914 405.696" stroke="#313553" stroke-width="0.319374" stroke-linecap="round" stroke-linejoin="round"/>
<path d="M347.392 463.334C345.422 467.089 343.965 471.092 343.06 475.232C342.467 477.792 342.094 480.4 341.945 483.023" stroke="#313553" stroke-width="0.319374" stroke-linecap="round" stroke-linejoin="round"/>
<path d="M287.676 463.334C287.676 463.334 333.348 473.266 341.937 475.169" stroke="#313553" stroke-width="0.319374" stroke-linecap="round" stroke-linejoin="round"/>
<path d="M325.238 250.918C325.238 254.624 324.137 258.247 322.075 261.327C320.013 264.408 317.083 266.81 313.654 268.228C310.226 269.646 306.453 270.017 302.814 269.294C299.174 268.571 295.831 266.787 293.207 264.167C290.583 261.546 288.795 258.208 288.071 254.574C287.346 250.939 287.717 247.171 289.136 243.747C290.555 240.324 292.959 237.397 296.044 235.337C299.129 233.277 302.756 232.177 306.467 232.175C308.931 232.175 311.373 232.659 313.65 233.601C315.927 234.543 317.997 235.923 319.74 237.663C321.483 239.404 322.866 241.471 323.81 243.745C324.753 246.019 325.238 248.457 325.238 250.918Z" stroke="#313553" stroke-width="0.319374" stroke-linecap="round" stroke-linejoin="round"/>
<path d="M498.596 115.151H457.037H432.087H412.308" stroke="#313553" stroke-width="0.319374" stroke-linecap="round" stroke-linejoin="round"/>
<path d="M383.94 134.307C394.309 134.307 402.712 125.914 402.712 115.561C402.712 105.207 394.309 96.8141 383.94 96.8141C373.572 96.8141 365.168 105.207 365.168 115.561C365.168 125.914 373.572 134.307 383.94 134.307Z" stroke="#313553" stroke-width="0.319374" stroke-linecap="round" stroke-linejoin="round"/>
<path d="M577.399 379.57H548.162H457.037H432.087H412.308" stroke="#313553" stroke-width="0.319374" stroke-linecap="round" stroke-linejoin="round"/>
<path d="M366.259 386.2C368.154 386.608 369.287 386.875 369.287 386.875C370.523 386.972 371.765 386.972 373.002 386.875C373.853 386.827 374.767 386.764 375.744 386.686C376.059 386.686 376.375 386.657 376.706 386.623C376.895 386.623 377.077 386.623 377.274 386.593C381.038 386.33 384.816 386.378 388.572 386.734C389.645 386.846 390.763 387.002 391.915 387.191C392.543 387.302 393.174 387.428 393.821 387.562C394.341 387.673 394.861 387.799 395.396 387.933C395.79 388.029 396.184 388.137 396.577 388.248C397.384 388.467 398.186 388.704 398.988 388.972C399.026 388.986 399.063 388.998 399.1 389.005C399.471 389.127 399.843 389.254 400.214 389.398V389.38C401.652 386.89 402.495 384.1 402.681 381.232C402.871 378.365 402.391 375.489 401.288 372.837C400.185 370.18 398.487 367.814 396.321 365.919C394.155 364.025 391.584 362.653 388.802 361.91C386.023 361.167 383.107 361.072 380.283 361.633C377.46 362.195 374.804 363.397 372.523 365.147C370.238 366.897 368.388 369.148 367.114 371.727C365.841 374.306 365.179 377.14 365.178 380.016C365.183 382.123 365.549 384.215 366.259 386.2Z" stroke="#313553" stroke-width="0.319374" stroke-linecap="round" stroke-linejoin="round"/>
<path d="M139.56 234.723H131.914C129.095 234.723 127.676 230.427 129.685 227.923L135.083 221.126L120.836 203.248L115.431 210.03C113.429 212.534 110.026 210.772 110.026 207.214V197.627H89.868V207.228C89.868 210.783 86.4614 212.549 84.459 210.044L79.0537 203.262L64.8067 221.126L70.212 227.923C72.2144 230.427 70.7952 234.723 67.983 234.723H60.3301V260H67.983C70.8027 260 72.2218 264.281 70.212 266.8L64.8067 273.586L79.0537 291.464L84.459 284.678C86.4614 282.163 89.868 283.936 89.868 287.483V297.081H110.026V287.483C110.026 283.94 113.429 282.163 115.431 284.678L120.836 291.464L135.083 273.586L129.678 266.8C127.676 264.281 129.095 260 131.907 260H139.552V234.723H139.56Z" stroke="#313553" stroke-width="0.319374" stroke-linecap="round" stroke-linejoin="round"/>
<path d="M111.899 247.363C111.899 255.64 106.542 262.362 99.9557 262.362C93.369 262.362 87.9934 255.64 87.9934 247.363C87.9934 239.086 93.3504 232.345 99.9557 232.345C106.561 232.345 111.899 239.067 111.899 247.363Z" stroke="#313553" stroke-width="0.319374" stroke-linecap="round" stroke-linejoin="round"/>
<path d="M578.824 96.1257C575.785 94.7526 572.46 94.1412 569.131 94.3449C561.85 94.8161 555.527 100.029 551.195 107.567C546.67 115.778 544.597 125.113 545.221 134.465C545.251 134.951 545.285 135.455 545.333 135.949" stroke="#313553" stroke-width="0.319374" stroke-linecap="round" stroke-linejoin="round"/>
<path d="M597.717 129.385C597.717 128.896 597.688 128.41 597.654 127.901C597.234 119.829 594.541 112.038 589.886 105.426C588.452 103.445 586.792 101.637 584.938 100.043" stroke="#313553" stroke-width="0.319374" stroke-linecap="round" stroke-linejoin="round"/>
<path d="M597.716 129.381L613.319 128.372C613.29 127.886 613.29 127.396 613.256 126.888C612.576 114.064 608.315 101.687 600.948 91.1607C592.486 79.515 580.553 72.5402 567.788 73.375C555.51 74.1801 544.934 82.8986 538.031 95.5534C531.571 107.821 528.669 121.644 529.646 135.469C529.68 135.97 529.724 136.46 529.758 136.953L545.361 135.948" stroke="#313553" stroke-width="0.319374" stroke-linecap="round" stroke-linejoin="round"/>
<path d="M584.932 100.042L585.705 98.6247C586.21 97.6386 586.404 96.5234 586.262 95.4252C586.121 94.3274 585.649 93.2972 584.914 92.4699C584.605 92.1259 584.212 91.8662 583.773 91.7152C583.339 91.5646 582.867 91.5279 582.414 91.6084C581.957 91.6889 581.529 91.8844 581.169 92.176C580.809 92.4676 580.53 92.846 580.359 93.2749L578.818 96.1242L572.502 107.737C571.688 107.45 570.827 107.332 569.965 107.391C565.313 107.692 561.862 113.012 562.271 119.263C562.68 125.515 566.796 130.36 571.443 130.06C576.091 129.759 579.546 124.443 579.137 118.188C579.026 116.415 578.591 114.676 577.859 113.057L584.932 100.042Z" stroke="#313553" stroke-width="0.319374" stroke-linecap="round" stroke-linejoin="round"/>
<path d="M567.779 73.3802L569.135 94.3454" stroke="#313553" stroke-width="0.319374" stroke-linecap="round" stroke-linejoin="round"/>
<path d="M538.128 95.6233L549.537 107.458" stroke="#313553" stroke-width="0.319374" stroke-linecap="round" stroke-linejoin="round"/>
<path d="M600.369 91.5716L590.817 104.779" stroke="#313553" stroke-width="0.319374" stroke-linecap="round" stroke-linejoin="round"/>
<path d="M660.528 381.668L669.816 369.896C672.509 370.817 675.433 370.837 678.137 369.953C680.845 369.07 683.19 367.331 684.82 364.999C687.235 361.852 688.725 358.098 689.122 354.154C689.011 354.299 688.903 354.455 688.792 354.611C687.822 356.009 686.529 357.151 685.021 357.94C683.509 358.73 681.834 359.142 680.132 359.142C678.427 359.142 676.751 358.73 675.239 357.94C673.731 357.151 672.438 356.009 671.469 354.611C669.143 351.428 667.888 347.59 667.888 343.65C667.888 339.709 669.143 335.871 671.469 332.688C671.58 332.54 671.703 332.402 671.84 332.277C668.408 332.967 665.354 334.901 663.266 337.708C661.279 340.404 659.904 343.501 659.235 346.782C658.57 350.063 658.626 353.45 659.406 356.707L650.119 368.479" stroke="#313553" stroke-width="0.319374" stroke-linecap="round" stroke-linejoin="round"/>
<path d="M639.669 381.662L626.477 398.357L626.618 398.531C625.258 398.594 623.932 398.958 622.736 399.599C621.536 400.241 620.499 401.143 619.697 402.241C617.802 404.842 616.784 407.973 616.784 411.189C616.784 414.402 617.802 417.534 619.697 420.134C620.488 421.273 621.547 422.204 622.776 422.85C624.006 423.492 625.377 423.829 626.766 423.829C628.156 423.829 629.527 423.492 630.756 422.85C631.986 422.204 633.045 421.273 633.836 420.134C635.734 417.611 636.76 414.543 636.752 411.386L636.894 411.557L645.341 400.872L650.085 394.858" stroke="#313553" stroke-width="0.319374" stroke-linecap="round" stroke-linejoin="round"/>
<path d="M650.089 368.479L640.801 356.707C641.578 353.449 641.633 350.061 640.961 346.78C640.292 343.498 638.914 340.403 636.923 337.708C634.846 334.904 631.8 332.969 628.378 332.277C628.501 332.408 628.616 332.545 628.724 332.688C631.057 335.868 632.312 339.708 632.312 343.65C632.312 347.591 631.057 351.431 628.724 354.611C627.758 356.009 626.465 357.151 624.957 357.941C623.448 358.73 621.773 359.143 620.071 359.143C618.37 359.143 616.695 358.73 615.186 357.941C613.678 357.151 612.385 356.009 611.419 354.611C611.293 354.455 611.196 354.299 611.089 354.154C611.486 358.095 612.972 361.849 615.376 364.999C617.007 367.332 619.355 369.073 622.066 369.956C624.775 370.84 627.698 370.819 630.396 369.896L639.683 381.668L650.085 394.857L663.277 411.552L663.403 411.381C663.4 414.535 664.421 417.607 666.316 420.129C667.107 421.268 668.166 422.2 669.396 422.845C670.625 423.487 671.996 423.825 673.385 423.825C674.775 423.825 676.146 423.487 677.375 422.845C678.605 422.2 679.664 421.268 680.455 420.129C682.361 417.532 683.386 414.401 683.386 411.181C683.386 407.964 682.361 404.833 680.455 402.236C679.656 401.138 678.624 400.236 677.427 399.595C676.235 398.953 674.909 398.585 673.553 398.526L673.679 398.352L660.502 381.657L650.089 368.479Z" stroke="#313553" stroke-width="0.319374" stroke-linecap="round" stroke-linejoin="round"/>
<path d="M639.673 381.662L645.346 400.865" stroke="#313553" stroke-width="0.319374" stroke-linecap="round" stroke-linejoin="round"/>
</svg>
