<svg width="266" height="266" viewBox="0 0 266 266" fill="none" xmlns="http://www.w3.org/2000/svg">
<rect width="266" height="266" rx="133" fill="#EA985D"/>
<g clip-path="url(#clip0_69_52)">
<path d="M177.922 48L160.434 65.4958L175.457 80.5196L170.45 85.5275L155.426 70.5038L145.41 80.5196L155.426 90.5354L150.418 95.5433L140.402 85.5275L130.386 95.5433L140.402 105.559L135.394 110.567L125.378 100.551L115.363 110.567L130.386 125.598L125.378 130.606L110.355 115.582L100.339 125.598L110.355 135.614L105.34 140.622L95.3238 130.606L85.3079 140.622L95.3238 150.638L90.3088 155.66L80.2929 145.644L70.2771 155.653L85.3008 170.676L80.3 175.677L65.2692 160.653L48 177.93L88.0633 218L218 88.0704L177.922 48Z" fill="black"/>
</g>
<defs>
<clipPath id="clip0_69_52">
<rect width="170" height="170" fill="white" transform="translate(48 48)"/>
</clipPath>
</defs>
</svg>
