<svg width="266" height="266" viewBox="0 0 266 266" fill="none" xmlns="http://www.w3.org/2000/svg">
<rect width="266" height="266" rx="133" fill="#EA985D"/>
<path d="M236.798 167.978C236.782 167.529 236.766 167.077 236.751 166.624C236.734 166.171 236.718 165.716 236.701 165.259L236.688 164.918L236.681 164.746L236.68 164.703L236.675 164.32L236.674 164.302L236.668 164.231L236.625 163.664C236.566 162.906 236.507 162.146 236.448 161.385L236.403 160.809L236.335 160.062C236.288 159.566 236.241 159.069 236.194 158.574C236.146 158.08 236.097 157.586 236.048 157.094C236.023 156.848 235.999 156.603 235.974 156.358C235.944 156.131 235.914 155.905 235.884 155.679C235.636 153.884 235.414 152.121 235.098 150.426C234.949 149.577 234.811 148.743 234.656 147.93C234.487 147.119 234.321 146.327 234.16 145.554C233.855 144.009 233.472 142.566 233.149 141.232C233.066 140.899 232.985 140.572 232.906 140.254C232.818 139.936 232.732 139.627 232.648 139.325C232.478 138.723 232.316 138.152 232.164 137.615C232.01 137.079 231.873 136.577 231.731 136.115C231.584 135.656 231.45 135.233 231.328 134.852C231.148 134.292 230.995 133.82 230.875 133.447C230.698 132.896 230.116 132.586 229.56 132.745L194.592 142.71C194.06 142.862 193.729 143.392 193.831 143.937C193.869 144.14 193.912 144.373 193.96 144.634C194.01 144.896 194.065 145.187 194.125 145.504C194.182 145.821 194.227 146.168 194.284 146.536C194.34 146.903 194.4 147.295 194.463 147.707C194.494 147.914 194.53 148.124 194.559 148.341C194.583 148.559 194.609 148.782 194.635 149.009C194.732 149.92 194.877 150.897 194.942 151.944C194.985 152.465 195.03 153.001 195.075 153.547C195.109 154.095 195.126 154.657 195.155 155.225C195.231 156.36 195.216 157.542 195.238 158.734L195.243 159.177L195.228 159.57C195.219 159.832 195.209 160.095 195.201 160.358C195.194 160.62 195.186 160.883 195.179 161.146L195.171 161.539L195.147 162.106C195.115 162.868 195.082 163.63 195.049 164.389L195.025 164.958L195.022 165.029L195.021 165.047C195.022 165.132 195.015 164.369 195.017 164.699L195.014 164.727L195.004 164.839L194.983 165.064C194.956 165.363 194.929 165.66 194.902 165.957C194.876 166.253 194.85 166.548 194.825 166.841C194.79 167.133 194.756 167.424 194.721 167.713C194.646 168.29 194.601 168.861 194.509 169.418C194.428 169.975 194.349 170.522 194.272 171.058C194.179 171.591 194.088 172.112 194 172.619C193.921 173.126 193.814 173.614 193.719 174.087C193.62 174.559 193.541 175.018 193.438 175.453C193.337 175.888 193.241 176.304 193.149 176.7C193.104 176.896 193.06 177.086 193.018 177.272C192.974 177.43 192.931 177.585 192.89 177.734C192.865 177.826 192.842 177.911 192.818 178H235.586C236.159 178 236.636 177.55 236.658 176.977C236.658 176.974 236.658 176.971 236.658 176.967C236.694 176.171 236.731 175.353 236.768 174.517C236.784 173.682 236.8 172.828 236.817 171.961C236.841 171.094 236.815 170.213 236.812 169.322C236.807 168.877 236.803 168.429 236.798 167.978Z" fill="black"/>
<path d="M225.678 123.091C226.252 122.86 226.514 122.195 226.249 121.637C226.131 121.388 225.994 121.098 225.838 120.769C225.691 120.46 225.529 120.119 225.353 119.747C225.124 119.281 224.877 118.778 224.613 118.241C224.347 117.706 224.064 117.136 223.766 116.535C223.614 116.223 223.466 115.966 223.31 115.673C223.155 115.386 222.996 115.093 222.834 114.794C222.508 114.196 222.175 113.572 221.817 112.932C221.448 112.299 221.066 111.645 220.673 110.972C220.477 110.637 220.277 110.296 220.075 109.952C219.863 109.614 219.649 109.271 219.433 108.924C218.998 108.234 218.554 107.528 218.103 106.811C217.15 105.407 216.201 103.938 215.142 102.509C214.882 102.149 214.621 101.788 214.359 101.425L213.965 100.882L213.555 100.348C213.006 99.638 212.455 98.9252 211.905 98.2122C211.344 97.5075 210.764 96.8176 210.196 96.125C209.908 95.781 209.63 95.432 209.336 95.0959C209.042 94.7608 208.749 94.4267 208.457 94.0938C208.164 93.7622 207.873 93.4313 207.584 93.1023C207.296 92.772 207.005 92.4474 206.706 92.1335C206.113 91.5019 205.527 90.8782 204.951 90.2644C204.374 89.6527 203.776 89.0777 203.208 88.5029C202.635 87.9312 202.079 87.3697 201.511 86.8483C200.949 86.3223 200.402 85.8107 199.873 85.3156C199.347 84.8194 198.809 84.3688 198.309 83.9225C197.804 83.4809 197.32 83.0579 196.86 82.6556C196.388 82.2665 195.94 81.8977 195.519 81.5511C195.098 81.2058 194.704 80.8828 194.34 80.5841C193.975 80.2864 193.626 80.0285 193.318 79.7879C192.87 79.4441 192.492 79.1537 192.191 78.9229C191.733 78.5711 191.08 78.6462 190.711 79.0919L171.944 101.809C171.59 102.238 171.62 102.864 172.015 103.255C172.172 103.41 172.353 103.589 172.557 103.791C172.752 103.987 172.976 104.195 173.205 104.438C173.435 104.68 173.683 104.942 173.947 105.222C174.213 105.501 174.495 105.797 174.792 106.11C175.079 106.433 175.38 106.772 175.695 107.127C176.006 107.484 176.345 107.839 176.668 108.235C176.994 108.627 177.331 109.032 177.678 109.448C178.031 109.857 178.367 110.301 178.716 110.749C179.061 111.201 179.43 111.646 179.777 112.124C180.124 112.6 180.476 113.083 180.833 113.573C181.015 113.814 181.187 114.066 181.358 114.321C181.53 114.574 181.702 114.828 181.876 115.084C182.05 115.338 182.224 115.594 182.399 115.85C182.574 116.107 182.734 116.375 182.903 116.637C183.234 117.167 183.578 117.689 183.903 118.222C184.221 118.76 184.538 119.299 184.854 119.835L185.092 120.235L185.314 120.644C185.463 120.915 185.61 121.186 185.758 121.455C186.366 122.52 186.88 123.617 187.417 124.648C187.663 125.177 187.905 125.696 188.142 126.205C188.261 126.459 188.378 126.709 188.493 126.957C188.601 127.209 188.707 127.458 188.811 127.704C189.021 128.193 189.225 128.669 189.423 129.129C189.606 129.596 189.782 130.046 189.952 130.479C190.037 130.695 190.119 130.906 190.2 131.113C190.277 131.314 190.372 131.532 190.423 131.7C190.544 132.053 190.658 132.387 190.766 132.702C190.875 133.014 190.978 133.306 191.073 133.576C191.198 133.949 191.312 134.29 191.416 134.599C191.531 134.944 191.632 135.248 191.72 135.51C191.915 136.096 192.564 136.395 193.138 136.165L225.678 123.091Z" fill="black"/>
<path d="M130.106 82.5135C130.39 82.5522 130.705 82.5951 131.047 82.6419C131.388 82.7012 131.756 82.7654 132.15 82.834C132.542 82.9014 132.96 82.9731 133.401 83.0488C133.784 83.1124 134.18 83.2047 134.592 83.2909L146.437 59.0635C145.849 58.9718 145.267 58.8808 144.696 58.7917C144.305 58.7336 143.92 58.6668 143.537 58.6189C143.154 58.5725 142.775 58.5266 142.401 58.4813C141.655 58.3927 140.928 58.3062 140.226 58.2229C139.522 58.1626 138.842 58.1042 138.189 58.0483C137.536 57.9982 136.913 57.9322 136.317 57.9039C135.721 57.8747 135.157 57.8469 134.626 57.8207C134.096 57.7957 133.6 57.7724 133.142 57.7506C132.683 57.7432 132.262 57.7365 131.881 57.7304C131.345 57.7239 130.891 57.7184 130.526 57.7141C129.948 57.7071 129.47 58.1589 129.442 58.7362L128.362 81.2862C128.336 81.8418 128.736 82.3256 129.287 82.4011C129.522 82.4334 129.796 82.471 130.106 82.5135Z" fill="black"/>
<path d="M161.94 94.9303C162.258 95.1617 162.56 95.3812 162.843 95.5878C163.127 95.7911 163.393 95.9814 163.639 96.1575C163.745 96.2307 163.921 96.3639 164.065 96.4706C164.212 96.581 164.353 96.6861 164.487 96.7858C164.778 97.0033 165.036 97.1954 165.256 97.3597C165.751 97.7294 166.455 97.6044 166.794 97.0876L182.258 73.532C182.598 73.0151 182.433 72.32 181.897 72.0123C181.658 71.8756 181.379 71.7158 181.064 71.5349C180.919 71.4517 180.767 71.3644 180.607 71.2726C180.432 71.1739 180.25 71.0707 180.06 70.9632C179.62 70.7207 179.144 70.4587 178.636 70.1786C178.127 69.9014 177.586 69.6066 177.015 69.2955C176.472 69.0232 175.9 68.7369 175.304 68.4379C174.705 68.1458 174.095 67.8207 173.439 67.5257C172.787 67.227 172.113 66.9181 171.421 66.6004C170.732 66.2756 170.006 65.9806 169.269 65.671C168.529 65.368 167.784 65.0366 167.006 64.7442C166.809 64.6696 166.609 64.594 166.41 64.5187L159.739 93.474C160.108 93.7057 160.456 93.9512 160.798 94.1729C161.196 94.4369 161.577 94.6897 161.94 94.9303Z" fill="black"/>
<path d="M109.342 82.3954C109.64 82.356 109.934 82.3073 110.226 82.2764C110.519 82.2467 110.809 82.2174 111.094 82.1882C111.663 82.1292 112.217 82.0717 112.753 82.016C113.29 81.9801 113.809 81.9452 114.307 81.9117C114.556 81.8947 114.799 81.8782 115.037 81.8618C115.275 81.8459 115.512 81.8257 115.716 81.8255C116.136 81.8144 116.535 81.8041 116.909 81.7943C117.282 81.7826 117.631 81.7715 117.954 81.7612C118.352 81.7586 118.718 81.7562 119.048 81.7541C119.412 81.7521 119.733 81.7504 120.008 81.7488C120.626 81.7456 121.112 81.222 121.072 80.605L119.679 59.3628C119.639 58.7458 119.089 58.2901 118.476 58.3676C118.203 58.402 117.884 58.4423 117.523 58.4878C117.189 58.5302 116.819 58.5775 116.416 58.6289C115.939 58.6996 115.424 58.7758 114.873 58.8575C114.325 58.9411 113.74 59.0301 113.124 59.1239C112.809 59.1684 112.519 59.2274 112.214 59.2848C111.911 59.3427 111.6 59.4022 111.283 59.4627C110.649 59.5851 109.99 59.7126 109.307 59.8446C108.629 59.9989 107.928 60.1587 107.208 60.3227C106.848 60.4052 106.484 60.489 106.115 60.5739C105.747 60.6601 105.377 60.7655 105.002 60.8624C104.255 61.0616 103.491 61.2651 102.714 61.472C101.945 61.7038 101.163 61.9394 100.372 62.178C99.9778 62.3001 99.5792 62.4153 99.1829 62.5457C98.7884 62.6805 98.3911 62.8157 97.9927 62.9518C97.5949 63.088 97.1956 63.2248 96.7953 63.3622C96.3947 63.4984 95.9934 63.6354 95.5976 63.7915C94.8041 64.0943 94.0075 64.3985 93.2108 64.7026C92.4177 65.0131 91.6377 65.357 90.8558 65.6825C90.4661 65.8486 90.0753 66.0089 89.6902 66.1793C89.3077 66.3559 88.9265 66.5318 88.5466 66.7073C88.1675 66.8828 87.7898 67.0578 87.4143 67.2318C87.0387 67.4055 86.6647 67.5766 86.3011 67.7654C85.5713 68.1338 84.8505 68.4978 84.1416 68.8557C83.4325 69.2112 82.7567 69.6035 82.0855 69.9647C81.4174 70.3327 80.7603 70.6836 80.1405 71.0618C79.5172 71.4314 78.9108 71.7913 78.3243 72.1392C77.7361 72.4823 77.1905 72.8529 76.6558 73.1877C76.1248 73.528 75.616 73.8544 75.132 74.1646C74.6585 74.4897 74.2091 74.7979 73.787 75.0877C73.3659 75.3777 72.9719 75.649 72.6074 75.9C72.2434 76.151 71.9214 76.3999 71.6247 76.615C71.2225 76.9119 70.8792 77.1653 70.6014 77.3704C70.1375 77.7129 70.0286 78.3597 70.353 78.8367L79.1736 91.805C79.4876 92.2665 80.1013 92.4113 80.5874 92.1368C80.8115 92.0105 81.0762 91.8609 81.3782 91.6907C81.6414 91.545 81.9262 91.373 82.2477 91.2056C82.5691 91.038 82.9165 90.8573 83.2877 90.6639C83.6578 90.4704 84.0519 90.2644 84.4671 90.0474C84.8894 89.8449 85.3334 89.632 85.7966 89.4099C86.2621 89.1931 86.7343 88.9447 87.2436 88.728C87.7489 88.5062 88.2714 88.2769 88.8087 88.0412C89.3406 87.7962 89.904 87.5822 90.474 87.3536C91.047 87.1316 91.6209 86.8803 92.222 86.6681C92.8205 86.4523 93.4292 86.2331 94.0451 86.011C94.3506 85.895 94.6649 85.7968 94.98 85.6962C95.2943 85.595 95.6105 85.4933 95.9277 85.3912C96.2442 85.2888 96.5621 85.1861 96.8808 85.0829C97.2013 84.9856 97.5263 84.8985 97.8492 84.8053C98.4978 84.6259 99.142 84.4269 99.7951 84.2602C100.449 84.0984 101.102 83.9366 101.753 83.7757C102.076 83.6897 102.404 83.6225 102.731 83.5552C103.056 83.4866 103.381 83.4183 103.705 83.3501C104.027 83.2815 104.349 83.2134 104.669 83.1455C104.99 83.0815 105.312 83.032 105.63 82.9748C106.266 82.8644 106.895 82.7551 107.513 82.648C108.134 82.5624 108.744 82.478 109.342 82.3954Z" fill="black"/>
<path d="M49.1968 99.1624C48.9656 99.4894 48.7335 99.8179 48.5004 100.148C48.2678 100.477 48.0345 100.808 47.8002 101.14C47.567 101.473 47.3489 101.818 47.122 102.157C46.6748 102.84 46.2172 103.518 45.7792 104.208C45.3514 104.905 44.9236 105.601 44.4975 106.295L44.1796 106.814L43.8779 107.342C43.6774 107.693 43.4775 108.044 43.2783 108.392C42.4641 109.775 41.7567 111.189 41.0378 112.532C40.7032 113.217 40.374 113.89 40.0518 114.549C39.892 114.878 39.7337 115.205 39.5776 115.526C39.4307 115.852 39.2857 116.175 39.1424 116.493C38.8572 117.128 38.5799 117.747 38.3114 118.345C38.061 118.95 37.8189 119.535 37.5866 120.096C37.3589 120.659 37.1288 121.192 36.9326 121.709C36.7391 122.226 36.5553 122.718 36.3825 123.179C36.2105 123.64 36.0496 124.071 35.9009 124.47C35.7635 124.873 35.6375 125.243 35.5234 125.577C35.3753 126.016 35.2482 126.393 35.1443 126.702C34.9604 127.248 35.2401 127.839 35.7779 128.046L43.9878 131.193C44.5103 131.393 45.0988 131.16 45.3403 130.655C45.46 130.405 45.603 130.105 45.7674 129.762C45.9037 129.478 46.0544 129.165 46.2187 128.823C46.3933 128.486 46.5821 128.123 46.7839 127.734C46.9851 127.346 47.1989 126.932 47.4244 126.497C47.6517 126.063 47.9134 125.618 48.1731 125.147C48.4361 124.68 48.7102 124.192 48.9939 123.688C49.2928 123.193 49.6018 122.681 49.9196 122.154C50.0779 121.892 50.2384 121.625 50.4008 121.356C50.5717 121.091 50.7448 120.824 50.9196 120.553C51.2692 120.013 51.6265 119.462 51.9899 118.9C52.7619 117.807 53.5169 116.656 54.3701 115.546C54.5785 115.266 54.7877 114.984 54.9976 114.702L55.3121 114.278L55.6418 113.863C56.0807 113.311 56.5213 112.756 56.962 112.202C57.4107 111.654 57.8764 111.12 58.329 110.582C58.5585 110.315 58.7788 110.042 59.0137 109.783C59.2488 109.523 59.4831 109.265 59.7165 109.007C59.9494 108.75 60.1813 108.494 60.4121 108.238C60.6407 107.982 60.8714 107.73 61.1111 107.489C61.5827 107 62.0486 106.518 62.5069 106.043C62.9643 105.569 63.4417 105.129 63.8924 104.685C64.3466 104.243 64.7859 103.808 65.2383 103.409C65.6833 103.004 66.1161 102.61 66.535 102.229C66.9504 101.845 67.3784 101.503 67.7738 101.16C68.1718 100.821 68.5532 100.496 68.9159 100.187C69.2721 99.905 69.61 99.6377 69.9274 99.386C70.2431 99.1347 70.5385 98.8994 70.8118 98.6817C70.9372 98.578 71.107 98.454 71.2504 98.3449C71.3976 98.2336 71.538 98.1278 71.6713 98.0275C71.9615 97.8082 72.2177 97.6149 72.4372 97.4494C72.9307 97.0769 73.0072 96.3667 72.6057 95.8965L63.2582 84.9458C62.8568 84.4755 62.1433 84.4396 61.6981 84.8685C61.5002 85.0592 61.2688 85.2819 61.0071 85.5342C60.8869 85.6498 60.7602 85.772 60.6274 85.8998C60.4922 86.0311 60.3635 86.1506 60.1959 86.3219C59.8754 86.6452 59.529 86.9951 59.1587 87.3687C58.7903 87.7425 58.3982 88.1403 57.9848 88.5596C57.6005 88.9758 57.1964 89.4134 56.775 89.87C56.3587 90.33 55.9098 90.7935 55.4754 91.3017C55.0394 91.8072 54.5887 92.3299 54.1252 92.867C53.656 93.3978 53.2021 93.968 52.7351 94.5464C52.2716 95.128 51.783 95.7082 51.3169 96.323C50.8521 96.9378 50.3797 97.5629 49.9016 98.196C49.6586 98.5097 49.4263 98.8336 49.1968 99.1624Z" fill="black"/>
<path d="M32.2109 137.556C32.1562 137.825 32.0922 138.141 32.0197 138.497C31.9533 138.824 31.8797 139.186 31.7996 139.58C31.721 139.984 31.6442 140.46 31.5584 140.946C31.4739 141.436 31.3842 141.959 31.2897 142.509C31.244 142.783 31.1918 143.067 31.1484 143.353C31.1099 143.637 31.0707 143.927 31.0304 144.223C30.8772 145.411 30.6753 146.688 30.5591 148.053C30.4916 148.732 30.4224 149.431 30.3516 150.145C30.2933 150.859 30.2543 151.591 30.204 152.333C30.0864 153.816 30.0649 155.354 30.0159 156.91L30 157.494L30.0028 158.082C30.005 158.474 30.0072 158.867 30.0094 159.26C30.0118 159.654 30.0142 160.048 30.0163 160.442L30.02 161.034L30.0427 161.626C30.0747 162.413 30.1067 163.201 30.1387 163.986L30.1628 164.572L30.1703 164.762L30.1807 164.904L30.2016 165.187C30.2295 165.564 30.2571 165.94 30.2848 166.314C30.3124 166.689 30.3401 167.062 30.3673 167.433C30.4049 167.82 30.4422 168.206 30.4796 168.589C30.5173 168.972 30.5547 169.352 30.592 169.73C30.6107 169.918 30.6294 170.106 30.6481 170.293C30.6714 170.478 30.6947 170.661 30.7178 170.844C30.8105 171.573 30.9018 172.291 30.991 172.993C31.0988 173.692 31.2042 174.376 31.3065 175.042C31.4023 175.708 31.5257 176.351 31.6392 176.974C31.6485 177.024 31.6579 177.073 31.667 177.122C31.7617 177.631 32.2046 178 32.7221 178H35.6157C36.2335 178 36.7238 177.48 36.6875 176.863C36.6777 176.699 36.6677 176.532 36.6566 176.365C36.6204 175.764 36.5769 175.146 36.5629 174.507C36.542 173.87 36.5207 173.215 36.4987 172.546C36.4946 171.877 36.4904 171.193 36.4863 170.498C36.4852 170.325 36.4841 170.15 36.483 169.976C36.4867 169.804 36.4907 169.63 36.4946 169.456C36.5022 169.11 36.5098 168.76 36.5177 168.409C36.5253 168.058 36.5331 167.705 36.541 167.35C36.5584 166.978 36.5756 166.604 36.5932 166.229C36.6106 165.854 36.6283 165.478 36.6457 165.1L36.659 164.816L36.6655 164.674L36.6664 164.656C36.6664 164.611 36.6672 164.698 36.6677 164.683L36.6703 164.649L36.6757 164.58L36.7197 164.031C36.778 163.299 36.8366 162.564 36.8954 161.829L36.9402 161.278L37.0036 160.729C37.0458 160.364 37.0878 159.999 37.1299 159.635C37.1717 159.271 37.2135 158.908 37.2551 158.546L37.3171 158.004L37.3974 157.466C37.6178 156.036 37.805 154.629 38.0793 153.282C38.208 152.607 38.3231 151.943 38.4553 151.296C38.5992 150.653 38.7399 150.023 38.8768 149.41C39.1302 148.182 39.4587 147.04 39.7261 145.982C39.7947 145.718 39.8617 145.459 39.9273 145.206C39.9965 144.957 40.0712 144.722 40.14 144.488C40.2786 144.024 40.4104 143.584 40.534 143.169C40.6605 142.752 40.7644 142.378 40.8854 142.004C41.0123 141.621 41.1286 141.271 41.234 140.954C41.3485 140.609 41.4497 140.304 41.5364 140.043C41.7312 139.457 41.3909 138.828 40.7935 138.669L33.5396 136.735C32.9419 136.575 32.3341 136.951 32.2109 137.556Z" fill="black"/>
<path d="M114.324 175.155C116.684 176.309 119.184 176.855 121.645 176.855C127.823 176.855 133.761 173.413 136.657 167.489C137.215 166.348 137.646 165.089 137.927 163.904L154.817 90.5963L161.249 62.6783L165.234 45.3839C165.697 43.3712 164.096 42 162.49 42C161.55 42 160.607 42.47 160.076 43.5562L151.968 60.1422L140.006 84.61L106.657 152.822C102.607 161.106 106.04 171.105 114.324 175.155ZM122.264 151.547C126.784 151.547 130.448 155.211 130.448 159.731C130.448 164.25 126.784 167.914 122.264 167.914C117.745 167.914 114.081 164.25 114.081 159.731C114.081 155.211 117.745 151.547 122.264 151.547Z" fill="black"/>
</svg>
