<svg width="1536" height="833" viewBox="0 0 1536 833" fill="none" xmlns="http://www.w3.org/2000/svg">
<path d="M1513.3 696.049C1510.8 701.662 1508.09 707.13 1505.2 712.475C1485.82 748.155 1453.92 778.075 1415.44 796.667C1373.69 816.862 1328.11 822.33 1283.54 812.461C1232.08 801.055 1186.56 772.258 1146.37 725.376C1145.67 726.587 1144.98 727.758 1144.27 728.969C1118.06 773.391 1069.03 823.538 1009.89 831.034C978.226 835.062 947.422 826.742 918.356 806.271C900.341 793.58 885.064 777.147 872.896 757.281C856.909 730.135 842.436 703.902 829.395 678.639C784.713 723.71 706.988 752.549 632.31 724.035C622.181 720.147 612.376 715.402 602.962 709.781C578.033 753.103 538.69 792.395 477.017 798.999C425.83 804.5 372.382 785.769 322.507 744.924C309.095 733.947 296.066 721.472 283.664 707.845C275.761 712.531 267.052 716.238 257.525 718.483C234.944 723.791 211.776 719.632 188.651 706.241C177.481 699.743 166.925 690.848 157.25 679.722C17.7471 519.343 -33.839 309.002 22.63 130.727L42.0643 137.564C-12.7144 310.392 37.2562 514.338 172.566 669.799C180.563 678.985 189.122 686.276 198.059 691.446C215.746 701.702 233.286 704.93 250.189 700.959C257.369 699.29 264.168 696.45 270.59 692.679C250.557 668.406 232.496 641.1 217.606 612.249C128.559 439.891 105.449 243.607 154.225 73.735C163.348 39.4033 192.94 1.97212 229.77 0.431168C245.426 -0.231697 268.387 5.4081 288.668 35.8481L288.968 36.3159C400.589 225.969 421.455 448.487 344.858 631.635C339.844 643.663 324.923 675.033 298.58 697.171C347.183 750.517 408.897 787.855 472.245 781.042C527.517 775.118 563.156 738.565 585.906 698.232C549.536 671.076 518.783 629.395 492.671 572.084C431.096 436.849 411.708 288.291 438.203 153.763C441.618 136.445 453.041 94.409 485.333 78.4482C499.727 71.3575 516.067 70.4268 533.953 75.6683C559.411 83.1831 580.663 101.798 590.747 125.458C660.356 288.831 676.378 466.651 635.875 626.183C630.901 645.861 623.088 670.141 611.25 694.203C619.958 699.509 628.943 703.937 638.254 707.508C707.651 734.054 780.757 703.54 819.656 659.282C691.345 401.298 710.888 240.641 754.029 148.527C761.149 135.194 775.372 127.98 792.306 128.887C809.193 129.774 824.671 138.522 833.607 152.324C896.899 249.693 901.082 366.683 897.6 457.752C894.864 529.503 886.581 603.698 844.818 660.608C844.122 661.538 843.426 662.468 842.729 663.398C856.847 691.191 872.691 720.18 890.438 750.351C900.946 767.475 914.138 781.74 929.572 792.615C953.62 809.517 978.896 816.427 1004.7 813.128C1057.34 806.411 1101.99 760.135 1126.23 718.988C1128.36 715.355 1130.48 711.722 1132.51 708.048C1104.18 670.828 1078.61 623.966 1055.54 567.196C949.473 306.046 967.301 180.204 994.636 99.7515C1002.61 73.9692 1021.23 55.7384 1041.99 53.4875C1053.21 52.2776 1070.42 54.8364 1088.62 74.2359C1169.55 166.343 1216 279.729 1223.19 402.398C1229.37 507.683 1205.54 615.404 1155.84 708.415C1194.14 755.601 1237.32 784.213 1286.06 794.985C1374.38 814.547 1453.95 763.542 1486.89 702.99C1517.65 646.43 1523.71 574.441 1505.95 476.541L1525.85 475.86C1542.61 568.401 1538.71 638.965 1513.34 695.97L1513.3 696.049ZM1142.03 690.344C1187.26 601.784 1208.87 500.324 1203.04 401.108C1196.09 282.458 1151.35 172.98 1073.59 84.5264C1064.56 74.9787 1055.5 70.4687 1046.83 71.4263C1033.48 72.8761 1020.02 87.3918 1013.98 106.788C963.479 255.288 1019.72 428.641 1074.37 563.081C1094.95 613.782 1117.44 656.128 1141.98 690.323L1142.03 690.344ZM832.36 642.664C869.382 587.268 875.099 516.939 877.449 454.936C880.823 366.395 876.955 252.883 816.501 159.924C811.544 152.281 802.978 147.42 793.647 146.939C784.317 146.459 776.444 150.443 772.566 157.635C731.698 244.894 713.081 397.379 832.36 642.664ZM594.077 682.411C604.546 660.41 611.562 638.303 616.145 620.264C655.784 464.068 640.083 289.967 571.945 130.015C564.38 112.245 548.659 98.333 529.824 92.8123C517.349 89.12 506.467 89.7138 496.637 94.5435C478.628 103.412 464.225 127.525 457.992 159.041C432.166 290.29 451.051 435.285 511.148 567.24C534.89 619.346 562.274 657.43 594.077 682.411ZM285.282 682C303.362 666.248 317.274 643.872 325.779 623.621C400.432 445.092 380.11 228.206 271.438 43.3463C259.97 26.2238 247.086 17.8665 233.115 18.4212C209.183 19.4069 182.523 47.0784 173.777 80.0524C126.089 246.211 148.654 438.009 235.66 606.453C249.16 632.588 266.003 658.445 285.318 681.921L285.282 682Z" fill="black" fill-opacity="0.1"/>
</svg>
